<svg xmlns="http://www.w3.org/2000/svg" xmlns:xlink="http://www.w3.org/1999/xlink" width="500" zoomAndPan="magnify" viewBox="0 0 375 374.999991" height="500" preserveAspectRatio="xMidYMid meet" version="1.0"><defs><clipPath id="a127e412b0"><path d="M 40.421875 3 L 230.613281 3 L 230.613281 174 L 40.421875 174 Z M 40.421875 3 " clip-rule="nonzero"/></clipPath><clipPath id="38e4d804ed"><path d="M 32.871094 1.347656 L 342.128906 1.347656 L 342.128906 175 L 32.871094 175 Z M 32.871094 1.347656 " clip-rule="nonzero"/></clipPath><clipPath id="1f27727ddb"><rect x="0" width="375" y="0" height="176"/></clipPath></defs><g transform="matrix(1, 0, 0, 1, 0, 99)"><g clip-path="url(#1f27727ddb)"><g clip-path="url(#a127e412b0)"><path fill="#ffffff" d="M 74.914062 3.839844 L 588.121094 3.839844 C 589.503906 3.839844 590.890625 3.875 592.273438 3.941406 C 593.65625 4.007812 595.039062 4.113281 596.417969 4.246094 C 597.796875 4.382812 599.171875 4.550781 600.542969 4.753906 C 601.910156 4.960938 603.277344 5.195312 604.636719 5.464844 C 605.992188 5.738281 607.34375 6.039062 608.6875 6.375 C 610.03125 6.714844 611.367188 7.082031 612.691406 7.484375 C 614.019531 7.886719 615.335938 8.320312 616.636719 8.789062 C 617.941406 9.253906 619.234375 9.753906 620.515625 10.285156 C 621.796875 10.8125 623.0625 11.375 624.3125 11.96875 C 625.566406 12.558594 626.804688 13.183594 628.023438 13.835938 C 629.246094 14.488281 630.453125 15.171875 631.640625 15.882812 C 632.828125 16.59375 634 17.335938 635.148438 18.105469 C 636.300781 18.875 637.433594 19.671875 638.546875 20.5 C 639.660156 21.324219 640.753906 22.175781 641.824219 23.054688 C 642.894531 23.933594 643.941406 24.839844 644.96875 25.769531 C 645.996094 26.699219 647 27.652344 647.976562 28.632812 C 648.957031 29.613281 649.914062 30.617188 650.84375 31.644531 C 651.773438 32.667969 652.679688 33.71875 653.558594 34.789062 C 654.4375 35.859375 655.289062 36.953125 656.113281 38.066406 C 656.9375 39.175781 657.734375 40.308594 658.503906 41.460938 C 659.277344 42.613281 660.015625 43.785156 660.730469 44.972656 C 661.441406 46.160156 662.125 47.363281 662.777344 48.585938 C 663.429688 49.808594 664.050781 51.046875 664.644531 52.296875 C 665.238281 53.550781 665.796875 54.816406 666.328125 56.097656 C 666.859375 57.375 667.355469 58.667969 667.824219 59.972656 C 668.289062 61.277344 668.726562 62.59375 669.128906 63.917969 C 669.53125 65.246094 669.898438 66.578125 670.234375 67.921875 C 670.570312 69.265625 670.875 70.617188 671.144531 71.976562 C 671.414062 73.335938 671.652344 74.699219 671.855469 76.070312 C 672.058594 77.441406 672.230469 78.816406 672.363281 80.195312 C 672.5 81.574219 672.601562 82.953125 672.671875 84.339844 C 672.738281 85.722656 672.773438 87.105469 672.773438 88.492188 C 672.773438 89.878906 672.738281 91.261719 672.671875 92.644531 C 672.601562 94.03125 672.5 95.410156 672.363281 96.789062 C 672.230469 98.167969 672.058594 99.542969 671.855469 100.914062 C 671.652344 102.285156 671.414062 103.648438 671.144531 105.007812 C 670.875 106.367188 670.570312 107.714844 670.234375 109.0625 C 669.898438 110.40625 669.53125 111.738281 669.128906 113.066406 C 668.726562 114.390625 668.289062 115.707031 667.824219 117.011719 C 667.355469 118.316406 666.859375 119.605469 666.328125 120.886719 C 665.796875 122.167969 665.238281 123.433594 664.644531 124.683594 C 664.050781 125.9375 663.429688 127.175781 662.777344 128.398438 C 662.125 129.617188 661.441406 130.824219 660.730469 132.011719 C 660.015625 133.199219 659.277344 134.371094 658.503906 135.523438 C 657.734375 136.675781 656.9375 137.804688 656.113281 138.917969 C 655.289062 140.03125 654.4375 141.125 653.558594 142.195312 C 652.679688 143.265625 651.773438 144.3125 650.84375 145.339844 C 649.914062 146.367188 648.957031 147.371094 647.976562 148.351562 C 647 149.328125 645.996094 150.285156 644.96875 151.214844 C 643.941406 152.144531 642.894531 153.050781 641.824219 153.929688 C 640.753906 154.808594 639.660156 155.660156 638.546875 156.484375 C 637.433594 157.3125 636.300781 158.109375 635.148438 158.878906 C 634 159.648438 632.828125 160.386719 631.640625 161.101562 C 630.453125 161.8125 629.246094 162.496094 628.023438 163.148438 C 626.804688 163.800781 625.566406 164.425781 624.3125 165.015625 C 623.0625 165.609375 621.796875 166.171875 620.515625 166.699219 C 619.234375 167.230469 617.941406 167.730469 616.636719 168.195312 C 615.335938 168.664062 614.019531 169.097656 612.691406 169.5 C 611.367188 169.902344 610.03125 170.269531 608.6875 170.605469 C 607.34375 170.945312 605.992188 171.246094 604.636719 171.519531 C 603.277344 171.789062 601.910156 172.023438 600.542969 172.226562 C 599.171875 172.429688 597.796875 172.601562 596.417969 172.738281 C 595.039062 172.871094 593.65625 172.972656 592.273438 173.042969 C 590.890625 173.109375 589.503906 173.144531 588.121094 173.144531 L 74.914062 173.144531 C 73.53125 173.144531 72.144531 173.109375 70.761719 173.042969 C 69.378906 172.972656 67.996094 172.871094 66.617188 172.738281 C 65.238281 172.601562 63.863281 172.429688 62.492188 172.226562 C 61.125 172.023438 59.757812 171.789062 58.398438 171.519531 C 57.042969 171.246094 55.691406 170.945312 54.347656 170.605469 C 53.003906 170.269531 51.667969 169.902344 50.34375 169.5 C 49.015625 169.097656 47.699219 168.664062 46.398438 168.195312 C 45.09375 167.730469 43.800781 167.230469 42.519531 166.699219 C 41.238281 166.171875 39.972656 165.609375 38.722656 165.015625 C 37.46875 164.425781 36.230469 163.800781 35.011719 163.148438 C 33.789062 162.496094 32.582031 161.8125 31.394531 161.101562 C 30.207031 160.386719 29.035156 159.648438 27.886719 158.878906 C 26.734375 158.109375 25.601562 157.3125 24.488281 156.484375 C 23.375 155.660156 22.28125 154.808594 21.210938 153.929688 C 20.140625 153.050781 19.09375 152.144531 18.066406 151.214844 C 17.039062 150.285156 16.035156 149.328125 15.058594 148.351562 C 14.078125 147.371094 13.121094 146.367188 12.191406 145.339844 C 11.261719 144.3125 10.355469 143.265625 9.476562 142.195312 C 8.597656 141.125 7.746094 140.03125 6.921875 138.917969 C 6.097656 137.804688 5.300781 136.675781 4.53125 135.523438 C 3.757812 134.371094 3.019531 133.199219 2.304688 132.011719 C 1.59375 130.824219 0.910156 129.617188 0.257812 128.398438 C -0.394531 127.175781 -1.015625 125.9375 -1.609375 124.683594 C -2.203125 123.433594 -2.761719 122.167969 -3.292969 120.886719 C -3.824219 119.605469 -4.320312 118.316406 -4.789062 117.011719 C -5.253906 115.707031 -5.691406 114.390625 -6.09375 113.066406 C -6.496094 111.738281 -6.863281 110.40625 -7.199219 109.0625 C -7.535156 107.714844 -7.839844 106.367188 -8.109375 105.007812 C -8.382812 103.648438 -8.617188 102.285156 -8.820312 100.914062 C -9.023438 99.542969 -9.195312 98.167969 -9.328125 96.789062 C -9.464844 95.410156 -9.566406 94.03125 -9.636719 92.644531 C -9.703125 91.261719 -9.738281 89.878906 -9.738281 88.492188 C -9.738281 87.105469 -9.703125 85.722656 -9.636719 84.339844 C -9.566406 82.953125 -9.464844 81.574219 -9.328125 80.195312 C -9.195312 78.816406 -9.023438 77.441406 -8.820312 76.070312 C -8.617188 74.699219 -8.382812 73.335938 -8.109375 71.976562 C -7.839844 70.617188 -7.535156 69.265625 -7.199219 67.921875 C -6.863281 66.578125 -6.496094 65.246094 -6.09375 63.917969 C -5.691406 62.59375 -5.253906 61.277344 -4.789062 59.972656 C -4.320312 58.667969 -3.824219 57.375 -3.292969 56.097656 C -2.761719 54.816406 -2.203125 53.550781 -1.609375 52.296875 C -1.015625 51.046875 -0.394531 49.808594 0.257812 48.585938 C 0.910156 47.363281 1.59375 46.160156 2.304688 44.972656 C 3.019531 43.785156 3.757812 42.613281 4.53125 41.460938 C 5.300781 40.308594 6.097656 39.175781 6.921875 38.066406 C 7.746094 36.953125 8.597656 35.859375 9.476562 34.789062 C 10.355469 33.71875 11.261719 32.667969 12.191406 31.644531 C 13.121094 30.617188 14.078125 29.613281 15.058594 28.632812 C 16.035156 27.652344 17.039062 26.699219 18.066406 25.769531 C 19.09375 24.839844 20.140625 23.933594 21.210938 23.054688 C 22.285156 22.175781 23.375 21.324219 24.488281 20.5 C 25.601562 19.671875 26.734375 18.875 27.886719 18.105469 C 29.035156 17.335938 30.207031 16.59375 31.394531 15.882812 C 32.582031 15.171875 33.789062 14.488281 35.011719 13.835938 C 36.230469 13.183594 37.46875 12.558594 38.722656 11.96875 C 39.972656 11.375 41.238281 10.8125 42.519531 10.285156 C 43.800781 9.753906 45.09375 9.253906 46.398438 8.789062 C 47.699219 8.320312 49.015625 7.886719 50.34375 7.484375 C 51.667969 7.082031 53.003906 6.714844 54.347656 6.375 C 55.691406 6.039062 57.042969 5.738281 58.398438 5.464844 C 59.757812 5.195312 61.125 4.960938 62.492188 4.753906 C 63.863281 4.550781 65.238281 4.382812 66.617188 4.246094 C 67.996094 4.113281 69.378906 4.007812 70.761719 3.941406 C 72.144531 3.875 73.53125 3.839844 74.914062 3.839844 Z M 74.914062 3.839844 " fill-opacity="1" fill-rule="nonzero"/></g><g clip-path="url(#38e4d804ed)"><path fill="#ffffff" d="M 329.40625 38.292969 L 316.339844 38.292969 L 316.339844 21.28125 C 316.339844 10.355469 307.449219 1.457031 296.515625 1.457031 L 52.648438 1.457031 C 41.714844 1.457031 32.824219 10.355469 32.824219 21.28125 L 32.824219 154.910156 C 32.824219 165.847656 41.714844 174.734375 52.648438 174.734375 L 296.515625 174.734375 C 307.449219 174.734375 316.339844 165.847656 316.339844 154.910156 L 316.339844 137.894531 L 329.40625 137.894531 C 336.449219 137.894531 342.167969 132.175781 342.167969 125.152344 L 342.167969 51.058594 C 342.175781 44.015625 336.449219 38.292969 329.40625 38.292969 Z M 334.246094 125.144531 C 334.246094 127.800781 332.082031 129.957031 329.414062 129.957031 L 312.382812 129.957031 C 310.195312 129.957031 308.417969 131.734375 308.417969 133.921875 L 308.417969 154.902344 C 308.417969 161.460938 303.082031 166.796875 296.523438 166.796875 L 52.648438 166.796875 C 46.089844 166.796875 40.753906 161.460938 40.753906 154.902344 L 40.753906 21.28125 C 40.753906 14.722656 46.089844 9.386719 52.648438 9.386719 L 296.515625 9.386719 C 303.074219 9.386719 308.410156 14.722656 308.410156 21.28125 L 308.410156 42.257812 C 308.410156 44.445312 310.1875 46.222656 312.375 46.222656 L 329.40625 46.222656 C 332.074219 46.222656 334.238281 48.386719 334.238281 51.050781 L 334.238281 125.144531 Z M 334.246094 125.144531 " fill-opacity="1" fill-rule="nonzero"/></g></g></g></svg>